# xmcd
#
# Track frame offsets:
#	150
#	17436
#	49498
#	67123
#	80646
#	99784
#	114534
#	139357
#	152219
#	173155
#	192190
#	209238
#	229447
#	263597
#
# Disc length: 3726 seconds
#
# Revision: 6
# Processed by: cddbd v1.5.1PL2 Copyright (c) Steve Scherf et al.
# Submitted via: EasyCDDAExtractor 7.0.4.1
#
DISCID=cc0e8c0e
DTITLE=Bob Marley - Legend
DYEAR=1995
DGENRE=Blues
TTITLE0=Is this love
TTITLE1=No Woman no cry
TTITLE2=Could you be loved
TTITLE3=Three little birds
TTITLE4=Buffalo soldier
TTITLE5=Get up stand up
TTITLE6=Stir it up
TTITLE7=One love - People get ready
TTITLE8=I shot the sheriff
TTITLE9=Waiting in vain
TTITLE10=Redemption song
TTITLE11=Satisfy my soul
TTITLE12=Exodus
TTITLE13=Jamming
EXTD=f YEAR: 1995
EXTT0=
EXTT1=
EXTT2=
EXTT3=
EXTT4=
EXTT5=
EXTT6=
EXTT7=
EXTT8=
EXTT9=
EXTT10=
EXTT11=
EXTT12=
EXTT13=
PLAYORDER=
